<?xml version="1.0"?>

<svg version="1.1" id="Layer_1" xmlns="http://www.w3.org/2000/svg" xmlns:xlink="http://www.w3.org/1999/xlink" x="0px" y="0px" width="414.6px" height="439.5px" viewBox="0 0 414.6 439.5" enable-background="new 0 0 414.6 439.5" xml:space="preserve">
<g>
&#x9;<path d="M305.8,320.2l-5.5-2.2c-8.5-3.4-10.2-6.1-10.2-9.3c0-4.7,4.3-6.4,8.2-6.4c4.7,0,8.4,2.4,11.6,7.5c0.5,0.8,1.5,1,2.3,0.6&#xA;&#x9;&#x9;l11.1-6.3c0.8-0.5,1.1-1.4,0.7-2.3c-2.5-4.9-9.9-16.3-26.4-16.3c-7.1,0-13.6,2.2-18.3,6.1c-5.1,4.2-7.7,10-7.7,16.8&#xA;&#x9;&#x9;c0,6.1,2.1,11.1,6.4,15.2c4.2,4,10,6.6,14.5,8.5l5,1.9c7.8,3.1,10.1,5.3,10.1,9.8c0,6.2-5.1,8.5-9.8,8.5c-7.3,0-11.3-5-13.3-9.3&#xA;&#x9;&#x9;c-0.4-0.8-1.4-1.2-2.3-0.8l-12.3,5.7c-0.8,0.4-1.2,1.2-0.9,2.1c3.6,11.6,15.3,19.4,29.1,19.4c14.4,0,29-8.7,29-25.3&#xA;&#x9;&#x9;C327.1,333.1,320.9,326.2,305.8,320.2z"></path>
&#x9;<path d="M72.6,286.7H57.7c-1,0-1.9,0.8-1.9,1.9V336l-38.4-48.4c-0.5-0.6-1.1-0.9-1.9-0.9H1.9c-1,0-1.9,0.8-1.9,1.9v78.3&#xA;&#x9;&#x9;c0,1,0.8,1.9,1.9,1.9h14.9c1,0,1.9-0.8,1.9-1.9l0-47.2L57,367.8c0.5,0.6,1.1,0.9,1.9,0.9h13.7c1,0,1.9-0.8,1.9-1.9v-78.3&#xA;&#x9;&#x9;C74.4,287.6,73.6,286.7,72.6,286.7z"></path>
&#x9;<path d="M221,285.9c-23.1,0-41.8,18.8-41.8,41.8c0,23.1,18.8,41.8,41.8,41.8s41.8-18.8,41.8-41.8C262.8,304.7,244,285.9,221,285.9z&#xA;&#x9;&#x9; M244.3,327.7c0,12.9-10.5,23.3-23.3,23.3c-12.9,0-23.3-10.5-23.3-23.3c0-12.9,10.5-23.3,23.3-23.3&#xA;&#x9;&#x9;C233.8,304.4,244.3,314.9,244.3,327.7z"></path>
&#x9;<path d="M127.5,285.9c-23.1,0-41.8,18.8-41.8,41.8c0,23.1,18.8,41.8,41.8,41.8s41.8-18.8,41.8-41.8&#xA;&#x9;&#x9;C169.4,304.7,150.6,285.9,127.5,285.9z M127.5,351.1c-12.9,0-23.3-10.5-23.3-23.3c0-12.9,10.5-23.3,23.3-23.3s23.3,10.5,23.3,23.3&#xA;&#x9;&#x9;C150.9,340.6,140.4,351.1,127.5,351.1z"></path>
&#x9;<path d="M414.5,366.6L383,288.2c-0.3-0.7-0.9-1.1-1.7-1.1h-16.8c-0.7,0-1.4,0.5-1.7,1.1l-31.5,78.5c-0.2,0.4-0.1,0.9,0.1,1.2&#xA;&#x9;&#x9;c0.2,0.4,0.6,0.6,1.1,0.6h16.6c0.7,0,1.4-0.4,1.7-1.1l6-14.8c0.2-0.5,0.7-0.8,1.2-0.8h29.7c0.5,0,1,0.3,1.2,0.8l6,14.8&#xA;&#x9;&#x9;c0.3,0.7,0.9,1.1,1.7,1.1h16.6c0.4,0,0.8-0.2,1.1-0.6C414.6,367.5,414.7,367.1,414.5,366.6z M381.9,335.5c-0.1,0.1-0.2,0.2-0.4,0.2&#xA;&#x9;&#x9;h-17.2c-0.2,0-0.3-0.1-0.4-0.2c-0.1-0.1-0.1-0.3-0.1-0.5l8.6-21.5c0.1-0.2,0.3-0.3,0.5-0.3c0,0,0,0,0,0c0.2,0,0.4,0.1,0.5,0.3&#xA;&#x9;&#x9;L382,335C382,335.1,382,335.3,381.9,335.5z"></path>
</g>
<g>
&#x9;<path fill="#627244" d="M335.5,256.4c-53.5,0-99.3-32.7-118.5-79.2c5.8-8.3,10-17.4,12.5-26.8c9.4-2.5,18.5-6.7,26.8-12.5&#xA;&#x9;&#x9;C302.8,157.2,335.5,203,335.5,256.4z M214.3,145.1c3.7,1.2,7.6,1.9,11.7,1.9c0-4.1-0.7-8.1-1.9-11.8c3.4-1.7,6.7-4,9.6-6.9&#xA;&#x9;&#x9;c-2.8-2.8-6-5.1-9.4-6.9c1.2-3.7,1.9-7.6,1.9-11.7c-4.1,0-8,0.7-11.7,1.9c-1.8-3.5-4.1-6.8-7-9.8c-2.9,2.9-5.2,6.2-7,9.7&#xA;&#x9;&#x9;c-3.7-1.2-7.7-1.9-11.8-1.9c0,4.1,0.7,8,1.9,11.7c-3.5,1.8-6.8,4.1-9.7,7c3,3,6.3,5.3,9.9,7.1c-1.2,3.7-1.9,7.6-1.9,11.8&#xA;&#x9;&#x9;c4.1,0,8.1-0.7,11.8-1.9c1.7,3.4,4,6.6,6.9,9.5C210.3,151.8,212.6,148.5,214.3,145.1z M229.5,106c9.4,2.5,18.5,6.7,26.8,12.5&#xA;&#x9;&#x9;C302.8,99.3,335.5,53.5,335.5,0C282.1,0,236.2,32.7,217,79.2C222.8,87.5,227,96.6,229.5,106z M185.1,106&#xA;&#x9;&#x9;c2.5-9.4,6.7-18.5,12.5-26.8C178.4,32.7,132.5,0,79.1,0c0,53.5,32.7,99.3,79.2,118.5C166.6,112.7,175.7,108.6,185.1,106z&#xA;&#x9;&#x9; M185.1,150.4c-9.4-2.5-18.5-6.7-26.8-12.5c-46.5,19.2-79.2,65.1-79.2,118.5c53.5,0,99.3-32.7,118.5-79.2&#xA;&#x9;&#x9;C191.8,168.9,187.6,159.8,185.1,150.4z M214.3,145.1c3.7,1.2,7.6,1.9,11.7,1.9c0-4.1-0.7-8.1-1.9-11.8c3.4-1.7,6.7-4,9.6-6.9&#xA;&#x9;&#x9;c-2.8-2.8-6-5.1-9.4-6.9c1.2-3.7,1.9-7.6,1.9-11.7c-4.1,0-8,0.7-11.7,1.9c-1.8-3.5-4.1-6.8-7-9.8c-2.9,2.9-5.2,6.2-7,9.7&#xA;&#x9;&#x9;c-3.7-1.2-7.7-1.9-11.8-1.9c0,4.1,0.7,8,1.9,11.7c-3.5,1.8-6.8,4.1-9.7,7c3,3,6.3,5.3,9.9,7.1c-1.2,3.7-1.9,7.6-1.9,11.8&#xA;&#x9;&#x9;c4.1,0,8.1-0.7,11.8-1.9c1.7,3.4,4,6.6,6.9,9.5C210.3,151.8,212.6,148.5,214.3,145.1z"></path>
</g>
<g>
&#x9;<path d="M105.3,439.5c-7.9,0-14.2-2.5-19-7.4c-4.8-4.9-7.2-11.6-7.2-20s2.4-15.1,7.1-20c4.7-4.9,11.1-7.4,19.1-7.4&#xA;&#x9;&#x9;c6.4,0,11.9,1.7,16.5,5.2c4.6,3.5,7.3,8.4,8.3,14.8h-12.6c-0.8-3-2.3-5.3-4.4-6.9c-2.2-1.6-4.8-2.4-7.8-2.4c-4.2,0-7.5,1.5-9.8,4.4&#xA;&#x9;&#x9;c-2.3,2.9-3.4,7-3.4,12.3c0,5.3,1.1,9.4,3.4,12.3c2.3,2.9,5.5,4.4,9.8,4.4c3.2,0,5.9-0.9,8.2-2.8c2.3-1.8,3.7-4.5,4.3-7.9h12.5&#xA;&#x9;&#x9;c-0.8,6.8-3.5,12-8.1,15.8C117.6,437.6,111.9,439.5,105.3,439.5z"></path>
&#x9;<path d="M154.5,439.2c-6.1,0-10.9-1.8-14.6-5.4c-3.6-3.6-5.4-8.4-5.4-14.5c0-6,1.8-10.9,5.4-14.5c3.6-3.6,8.5-5.4,14.6-5.4&#xA;&#x9;&#x9;c6,0,10.9,1.8,14.5,5.4c3.6,3.6,5.4,8.4,5.4,14.5c0,6-1.8,10.9-5.4,14.5C165.4,437.3,160.5,439.2,154.5,439.2z M154.5,429.9&#xA;&#x9;&#x9;c2.6,0,4.6-0.9,6.1-2.7c1.4-1.8,2.2-4.5,2.2-8c0-3.5-0.7-6.2-2.2-8c-1.5-1.8-3.5-2.7-6.1-2.7c-2.7,0-4.7,0.9-6.2,2.7&#xA;&#x9;&#x9;c-1.5,1.8-2.2,4.5-2.2,8c0,3.5,0.7,6.2,2.2,8C149.8,429,151.8,429.9,154.5,429.9z"></path>
&#x9;<path d="M203.5,400.2H215v38h-11.2v-5.4c-2.9,4.2-6.9,6.3-11.9,6.3c-3.9,0-7.1-1.2-9.5-3.6c-2.4-2.4-3.6-5.9-3.6-10.4v-24.9h11.5&#xA;&#x9;&#x9;v22.6c0,4.3,2,6.5,6.1,6.5c2,0,3.7-0.7,5.1-2c1.4-1.3,2.1-3.3,2.1-5.9V400.2z"></path>
&#x9;<path d="M244.8,399.3c3.9,0,7.1,1.2,9.5,3.6c2.4,2.4,3.6,5.9,3.6,10.4v24.9h-11.5v-22.6c0-4.3-2-6.5-6.1-6.5c-2,0-3.7,0.7-5.1,2&#xA;&#x9;&#x9;c-1.4,1.3-2.1,3.3-2.1,5.9v21.2h-11.5v-38h11.2v5.4C235.8,401.4,239.8,399.3,244.8,399.3z"></path>
&#x9;<path d="M282.6,439.2c-5.9,0-10.7-1.8-14.2-5.4c-3.5-3.6-5.3-8.4-5.3-14.5c0-6,1.8-10.9,5.3-14.5c3.5-3.6,8.3-5.4,14.2-5.4&#xA;&#x9;&#x9;c5.2,0,9.5,1.4,12.8,4.1c3.3,2.7,5.2,6.4,5.8,11.1h-11.4c-0.6-3.9-3-5.8-7.2-5.8c-5.3,0-7.9,3.5-7.9,10.5c0,7,2.6,10.5,7.9,10.5&#xA;&#x9;&#x9;c2,0,3.7-0.5,5-1.6c1.3-1.1,2.1-2.7,2.4-4.8h11.4c-0.4,4.9-2.3,8.7-5.7,11.6C292.3,437.7,288,439.2,282.6,439.2z"></path>
&#x9;<path d="M311.5,396.2c-1.7,0-3.1-0.6-4.2-1.7c-1.2-1.2-1.7-2.5-1.7-4.2c0-1.7,0.6-3.1,1.7-4.2c1.2-1.2,2.6-1.7,4.2-1.7&#xA;&#x9;&#x9;c1.6,0,3,0.6,4.2,1.7c1.2,1.2,1.7,2.6,1.7,4.2c0,1.6-0.6,3-1.7,4.2C314.6,395.7,313.2,396.2,311.5,396.2z M305.8,438.3v-38h11.5v38&#xA;&#x9;&#x9;H305.8z"></path>
&#x9;<path d="M324,438.3v-52.5h11.5v52.5H324z"></path>
</g>
</svg>